<svg xmlns="http://www.w3.org/2000/svg" viewBox="0 0 720 540" role="img">
  <title>Election workspace map illustration</title>
  <rect width="720" height="540" fill="#f8fbf5"/>
  <g stroke="#d9e2df" stroke-width="2">
    <path d="M0 96h720M0 192h720M0 288h720M0 384h720M0 480h720"/>
    <path d="M120 0v540M240 0v540M360 0v540M480 0v540M600 0v540"/>
  </g>
  <path d="M52 126c88-55 140-31 199 4 79 47 121 15 192-28 62-38 122-42 205 16" fill="none" stroke="#1f7a8c" stroke-width="16" stroke-linecap="round"/>
  <path d="M92 398c82-45 143-42 202-5 74 46 127 44 204-3 52-32 94-34 148-4" fill="none" stroke="#d9a441" stroke-width="14" stroke-linecap="round"/>
  <g>
    <circle cx="186" cy="171" r="34" fill="#c84e46"/>
    <circle cx="186" cy="171" r="15" fill="#ffffff"/>
    <path d="M186 205l-22 44h44z" fill="#c84e46"/>
  </g>
  <g>
    <circle cx="528" cy="354" r="34" fill="#2d7d46"/>
    <circle cx="528" cy="354" r="15" fill="#ffffff"/>
    <path d="M528 388l-22 44h44z" fill="#2d7d46"/>
  </g>
  <g fill="#ffffff" stroke="#12343b" stroke-width="4">
    <rect x="404" y="144" width="176" height="112" rx="8"/>
    <rect x="112" y="304" width="164" height="100" rx="8"/>
  </g>
  <g fill="#12343b">
    <rect x="428" y="169" width="92" height="10" rx="5"/>
    <rect x="428" y="194" width="126" height="10" rx="5"/>
    <rect x="428" y="219" width="74" height="10" rx="5"/>
    <rect x="136" y="330" width="94" height="10" rx="5"/>
    <rect x="136" y="356" width="116" height="10" rx="5"/>
  </g>
  <circle cx="610" cy="110" r="42" fill="#7764a8"/>
  <path d="M591 111l14 14 28-34" fill="none" stroke="#ffffff" stroke-width="10" stroke-linecap="round" stroke-linejoin="round"/>
</svg>
